<?xml version="1.0" encoding="UTF-8" standalone="no"?>
<svg
   xmlns:dc="http://purl.org/dc/elements/1.1/"
   xmlns:cc="http://creativecommons.org/ns#"
   xmlns:rdf="http://www.w3.org/1999/02/22-rdf-syntax-ns#"
   xmlns:svg="http://www.w3.org/2000/svg"
   xmlns="http://www.w3.org/2000/svg"
   xmlns:sodipodi="http://sodipodi.sourceforge.net/DTD/sodipodi-0.dtd"
   xmlns:inkscape="http://www.inkscape.org/namespaces/inkscape"
   version="1.1"
   id="Layer_1"
   x="0px"
   y="0px"
   width="876.59796"
   height="581.10895"
   viewBox="0 0 876.59796 581.10895"
   enable-background="new 0 0 708.661 827.717"
   xml:space="preserve"
   sodipodi:docname="Logo_Carrefour.svg"
   inkscape:version="0.92.2 (5c3e80d, 2017-08-06)"><title
     id="title8">Carrefour 2009</title><metadata
     id="metadata13"><rdf:RDF><cc:Work
         rdf:about=""><dc:format>image/svg+xml</dc:format><dc:type
           rdf:resource="http://purl.org/dc/dcmitype/StillImage" /><dc:title>Carrefour 2009</dc:title></cc:Work></rdf:RDF></metadata><defs
     id="defs11" /><sodipodi:namedview
     pagecolor="#ffffff"
     bordercolor="#666666"
     borderopacity="1"
     objecttolerance="10"
     gridtolerance="10"
     guidetolerance="10"
     inkscape:pageopacity="0"
     inkscape:pageshadow="2"
     inkscape:window-width="1366"
     inkscape:window-height="705"
     id="namedview9"
     showgrid="false"
     fit-margin-top="0"
     fit-margin-left="0"
     fit-margin-right="0"
     fit-margin-bottom="0"
     inkscape:zoom="0.5"
     inkscape:cx="234.31449"
     inkscape:cy="75.129633"
     inkscape:window-x="-8"
     inkscape:window-y="-8"
     inkscape:window-maximized="1"
     inkscape:current-layer="Layer_1" /><g
     id="g12"
     transform="matrix(1.8678631,0,0,1.8678631,0,-427.53715)"><path
       id="path15-9"
       d="M 138.77386,239.39851 10.498248,363.49506 C 4.091601,368.93518 0,375.32342 0,384.46394 c 0,9.09909 4.096204,15.51034 10.498248,20.99189 L 138.77386,529.51097 c 0.82384,0.84225 1.62007,1.17823 2.29663,1.17823 1.21505,0 2.05271,-1.10459 2.01589,-2.40249 -0.0368,-0.76401 -0.3682,-1.64309 -1.12761,-2.4025 -30.1094,-37.40892 -52.017182,-80.3132 -52.017182,-140.96923 0,-60.69284 21.907782,-104.43938 52.017182,-141.87592 0.75941,-0.7502 1.09079,-1.61547 1.12761,-2.39789 0.0414,-1.32551 -0.80084,-2.39789 -2.01589,-2.39789 -0.67656,-0.0138 -1.47279,0.31757 -2.29663,1.15523"
       inkscape:connector-curvature="0"
       style="fill:#ed1c24" /><path
       id="path17-4"
       d="m 237.39111,228.89105 c -50.22682,0 -69.85178,71.17729 -69.85178,156.01473 0,84.86505 19.62496,155.09423 69.85178,155.09423 30.14161,0 55.83263,-17.6505 55.91548,-32.1575 0.0138,-3.17571 -1.21045,-6.21795 -3.87529,-8.87357 -14.28608,-13.80283 -19.87349,-27.59645 -19.91491,-39.77 -0.0921,-23.2379 20.06679,-40.54781 38.65159,-40.54781 25.54834,0 40.61685,20.0806 40.61685,46.08459 0,24.64166 -10.49825,45.1641 -21.92159,61.59954 -0.45104,0.67196 -0.65355,1.42216 -0.65355,2.08032 0.009,1.28869 0.76861,2.34726 1.90542,2.34726 0.69037,0 1.50041,-0.3682 2.38408,-1.25648 L 458.80702,405.45123 c 6.40664,-5.47695 10.49824,-11.8928 10.49824,-20.99189 0,-9.13592 -4.0962,-15.52876 -10.49824,-20.96888 L 330.49919,239.3939 c -0.87907,-0.87907 -1.6891,-1.25187 -2.38408,-1.25187 -1.14601,0 -1.89622,1.06777 -1.90542,2.36107 0,0.66276 0.20251,1.40375 0.65355,2.08492 11.41874,16.41243 21.92159,36.95788 21.92159,61.58113 0,25.98557 -15.06851,46.08458 -40.61685,46.08458 -18.5848,0 -38.74364,-17.2961 -38.65159,-40.5386 0.0414,-12.17355 5.62883,-25.98097 19.91491,-39.76999 2.66484,-2.66944 3.88909,-5.68406 3.87529,-8.86437 -0.0829,-14.53002 -25.77387,-32.18972 -55.91548,-32.18972"
       inkscape:connector-curvature="0"
       style="fill:#005bab" /></g></svg>