<svg xmlns="http://www.w3.org/2000/svg" width="234" height="47"><path d="M114.496 26.582c0-1.445-.674-2.601-1.83-3.467-.867-.578-1.83-.867-3.852-1.348-3.467-.771-3.659-1.059-3.659-2.022 0-1.156.867-1.83 2.696-1.83 1.733 0 2.6.578 2.985 2.022h3.178c-.289-2.985-2.503-4.622-5.97-4.622-3.563 0-5.874 1.83-5.874 4.718 0 1.348.578 2.504 1.637 3.178.674.481 2.215.963 4.333 1.541l.289.096.578.097c.481.097.963.289 1.348.481.867.385 1.156.867 1.156 1.541 0 1.252-1.06 2.118-2.985 2.118-2.215 0-3.37-.866-3.659-2.6h-3.178c.289 3.274 2.696 5.2 6.645 5.2 3.659-.096 6.162-1.925 6.162-5.103zM98.511 28.411h-8.282v-3.467h5.875v-2.696h-5.875V18.3h8.282v-2.793H86.956v15.696h11.555zM31.682 10.885c1.059 6.355-.385 13-5.778 16.563 2.022 2.215 6.066 3.852 10.208 3.467 1.251-2.215 1.926-4.815 1.926-7.511-.001-5.104-2.505-9.726-6.356-12.519zM7.511 20.033c-.289 1.06-.385 2.215-.385 3.371 0 7.03 4.718 13 11.267 14.83v-6.355c-.097-6.357-4.815-11.268-10.882-11.846z"/><path d="M21.667 26.678c4.719-2.311 7.8-6.548 7.415-11.844-5.007 1.926-7.8 6.644-7.8 11.652v12.325c.385 0 .867.097 1.252.097 4.526 0 8.57-1.926 11.459-5.007-5.297-.29-9.63-2.794-12.326-7.223z"/><path d="M31.682 10.789c-.097 0-.097-.097-.193-.097-2.504-1.733-5.585-2.792-8.86-2.792-6.355 0-11.844 3.852-14.251 9.245 4.237.578 7.993 2.889 10.304 6.259.963-6.838 6.644-10.978 13-12.615zM60.763 22.344l-3.852-6.837h-3.755l5.97 9.63v6.066h3.178v-6.066l5.874-9.726h-3.659zM76.459 27.159l-3.948-11.652h-3.467l5.585 15.696h3.467l5.682-15.696h-3.467z"/><path d="M22.629 1.833c-11.94 0-21.667 9.629-21.667 21.57 0 11.94 9.726 21.571 21.667 21.571s21.667-9.631 21.667-21.571c-.096-11.94-9.726-21.57-21.667-21.57zm0 39.964A18.33 18.33 0 014.236 23.404c0-10.111 8.282-18.393 18.393-18.393a18.33 18.33 0 0118.393 18.393c0 10.111-8.281 18.393-18.393 18.393zM190.859 22.152h-6.452v-6.645h-3.178v15.696h3.178v-6.259h6.452v6.259h3.178V15.507h-3.178zM199.045 31.3h11.459v-2.792h-8.281v-3.467h5.873v-2.697h-5.873v-3.948h8.281v-2.792h-11.459zM224.852 24.752a4.698 4.698 0 003.082-4.43c0-2.6-2.119-4.719-4.719-4.719h-8.57V31.3h3.178v-6.259h3.756l3.081 6.259h3.659l-3.467-6.548zm-2.311-2.215h-4.814V18.3h4.814c1.155 0 2.118.963 2.118 2.119s-.963 2.118-2.118 2.118zM177.955 26.004h-3.563c-.963 1.637-2.6 2.696-4.525 2.696-2.889 0-5.201-2.407-5.201-5.296s2.313-5.296 5.201-5.296c1.829 0 3.467 1.059 4.525 2.696h3.563l-.096-.385c-1.156-3.082-4.237-5.296-7.896-5.296-4.719 0-8.378 3.659-8.378 8.282 0 4.622 3.659 8.185 8.378 8.185 3.659 0 6.645-2.118 7.896-5.296l.096-.29zM150.318 15.219c-4.719 0-8.475 3.659-8.475 8.281s3.66 8.186 8.475 8.186c4.719 0 8.378-3.563 8.378-8.282 0-4.623-3.659-8.185-8.378-8.185zm0 13.481c-2.889 0-5.199-2.407-5.199-5.296s2.311-5.296 5.199-5.296 5.104 2.407 5.104 5.296-2.311 5.296-5.104 5.296zM139.148 20.322c0-2.6-2.119-4.719-4.719-4.719h-8.57V31.3h3.178v-6.259h3.756l3.081 6.259h3.659l-3.37-6.548c1.733-.674 2.985-2.408 2.985-4.43zm-5.296 2.215h-4.814V18.3h4.814c1.156 0 2.119.963 2.119 2.119s-.963 2.118-2.119 2.118zM31.682 10.885z"/></svg>